<svg width="104" height="36" viewBox="0 0 104 36" fill="none" xmlns="http://www.w3.org/2000/svg">
<path fill-rule="evenodd" clip-rule="evenodd" d="M6.82602 7.98409C11.9054 2.90472 20.1407 2.90472 25.2201 7.98409L31.3444 14.1084C32.28 15.044 32.2801 16.5611 31.3444 17.4967L17.7173 31.1238C16.7816 32.0595 15.2646 32.0595 14.3289 31.1238L0.701741 17.4967C-0.233923 16.5611 -0.233904 15.0441 0.701741 14.1084L6.82602 7.98409ZM16.9149 7.38867C16.3178 7.33385 15.7168 7.3367 15.1202 7.39713L14.8005 7.42956C13.4619 7.56516 12.1692 7.99284 11.0138 8.68247C10.5194 8.97762 10.0537 9.3186 9.62298 9.70084L9.19067 10.0846C8.90516 10.338 9.03836 10.809 9.41429 10.8753L14.6669 11.8019C17.3189 12.2697 19.9345 12.9248 22.4939 13.7621L27.7916 15.4951C28.0221 15.5705 28.1955 15.2818 28.0207 15.1137L22.758 10.0555L21.7436 9.27756C20.3447 8.20473 18.6705 7.54984 16.9149 7.38867Z" fill="#F7F7F7"/>
<path d="M95.7212 12.8C96.5745 12.8 97.3532 12.9387 98.0572 13.216C98.7719 13.4827 99.3852 13.8667 99.8972 14.368C100.42 14.8694 100.825 15.4614 101.113 16.144C101.401 16.8267 101.545 17.5787 101.545 18.4C101.545 19.2107 101.401 19.9574 101.113 20.64C100.825 21.3227 100.42 21.9147 99.8972 22.416C99.3745 22.9174 98.7505 23.3067 98.0252 23.584C97.2999 23.8614 96.5105 24 95.6572 24H91.0652V12.8H95.7212ZM95.7692 22.208C96.2812 22.208 96.7559 22.1174 97.1932 21.9361C97.6305 21.7441 98.0092 21.4827 98.3292 21.1521C98.6599 20.8107 98.9159 20.4107 99.0972 19.952C99.2892 19.4827 99.3852 18.9707 99.3852 18.416C99.3852 17.8507 99.2892 17.3387 99.0972 16.88C98.9052 16.4107 98.6439 16.0054 98.3132 15.664C97.9825 15.312 97.5932 15.0454 97.1452 14.864C96.6972 14.6827 96.2065 14.592 95.6732 14.592H93.2092V22.208H95.7692Z" fill="#F7F7F7"/>
<path d="M77.9446 12.8H79.9766L86.3126 21.4081L85.7526 21.6V12.8H87.8326V24H85.7846L79.4806 15.408L80.0406 15.216V24H77.9446V12.8Z" fill="#F7F7F7"/>
<path d="M67.3068 19.392C67.3068 20.3094 67.5575 21.0294 68.0588 21.552C68.5602 22.0747 69.2322 22.3361 70.0748 22.3361C70.9068 22.3361 71.5682 22.0801 72.0588 21.5681C72.5495 21.0454 72.7948 20.32 72.7948 19.392V12.8H74.9388V19.392C74.9388 20.3734 74.7415 21.2214 74.3468 21.9361C73.9628 22.6401 73.4028 23.1841 72.6668 23.5681C71.9415 23.9521 71.0775 24.144 70.0748 24.144C69.0615 24.144 68.1868 23.9521 67.4508 23.5681C66.7148 23.1841 66.1495 22.6401 65.7548 21.9361C65.3602 21.2214 65.1628 20.3734 65.1628 19.392V12.8H67.3068V19.392Z" fill="#F7F7F7"/>
<path d="M57.0415 12.6721C57.8842 12.6721 58.6682 12.8161 59.3935 13.1041C60.1188 13.3921 60.7482 13.7975 61.2815 14.3201C61.8255 14.8428 62.2468 15.4508 62.5455 16.1441C62.8548 16.8268 63.0095 17.5735 63.0095 18.3841C63.0095 19.1841 62.8548 19.9361 62.5455 20.6401C62.2468 21.3441 61.8255 21.9575 61.2815 22.4801C60.7482 23.0028 60.1188 23.4135 59.3935 23.7121C58.6682 24.0001 57.8842 24.1441 57.0415 24.1441C56.1988 24.1441 55.4148 24.0001 54.6895 23.7121C53.9748 23.4135 53.3455 23.0028 52.8015 22.4801C52.2575 21.9575 51.8308 21.3495 51.5215 20.6561C51.2228 19.9521 51.0735 19.1948 51.0735 18.3841C51.0735 17.5735 51.2228 16.8215 51.5215 16.1281C51.8308 15.4348 52.2575 14.8321 52.8015 14.3201C53.3455 13.7975 53.9748 13.3921 54.6895 13.1041C55.4148 12.8161 56.1988 12.6721 57.0415 12.6721ZM57.0735 14.4801C56.5508 14.4801 56.0602 14.5815 55.6015 14.7841C55.1428 14.9761 54.7375 15.2535 54.3855 15.6161C54.0335 15.9681 53.7562 16.3788 53.5535 16.8481C53.3615 17.3175 53.2655 17.8295 53.2655 18.3841C53.2655 18.9388 53.3668 19.4561 53.5695 19.9361C53.7722 20.4055 54.0495 20.8215 54.4015 21.1841C54.7535 21.5468 55.1588 21.8295 55.6175 22.0321C56.0762 22.2348 56.5615 22.3361 57.0735 22.3361C57.5855 22.3361 58.0655 22.2348 58.5135 22.0321C58.9722 21.8295 59.3722 21.5468 59.7135 21.1841C60.0548 20.8215 60.3215 20.4055 60.5135 19.9361C60.7162 19.4561 60.8175 18.9388 60.8175 18.3841C60.8175 17.8295 60.7162 17.3175 60.5135 16.8481C60.3215 16.3788 60.0548 15.9681 59.7135 15.6161C59.3722 15.2535 58.9722 14.9761 58.5135 14.7841C58.0655 14.5815 57.5855 14.4801 57.0735 14.4801Z" fill="#F7F7F7"/>
<path d="M48.4665 15.5679C48.0718 15.3226 47.6665 15.1199 47.2505 14.9599C46.8451 14.7999 46.4611 14.6879 46.0985 14.6239C45.7358 14.5492 45.4051 14.5119 45.1065 14.5119C44.6051 14.5119 44.1998 14.6079 43.8905 14.7999C43.5918 14.9919 43.4425 15.2746 43.4425 15.6479C43.4425 15.9892 43.5491 16.2666 43.7625 16.4799C43.9865 16.6932 44.2745 16.8692 44.6265 17.0079C44.9891 17.1466 45.3838 17.2799 45.8105 17.4079C46.2371 17.5359 46.6638 17.6799 47.0905 17.8399C47.5171 17.9892 47.9065 18.1866 48.2585 18.4319C48.6211 18.6772 48.9091 18.9919 49.1225 19.3759C49.3358 19.7599 49.4425 20.2399 49.4425 20.8159C49.4425 21.5092 49.2558 22.1012 48.8825 22.5919C48.5091 23.0826 47.9971 23.4612 47.3465 23.7279C46.7065 23.9946 45.9758 24.1279 45.1545 24.1279C44.5571 24.1279 43.9705 24.0532 43.3945 23.9039C42.8291 23.7439 42.2905 23.5306 41.7785 23.2639C41.2771 22.9972 40.8238 22.6879 40.4185 22.3359L41.3145 20.5919C41.6985 20.9439 42.1145 21.2479 42.5625 21.5039C43.0105 21.7492 43.4585 21.9412 43.9065 22.0799C44.3651 22.2079 44.7918 22.2719 45.1865 22.2719C45.7945 22.2719 46.2638 22.1546 46.5945 21.9199C46.9358 21.6852 47.1065 21.3546 47.1065 20.9279C47.1065 20.5759 46.9945 20.2932 46.7705 20.0799C46.5571 19.8666 46.2745 19.6906 45.9225 19.5519C45.5705 19.4026 45.1758 19.2746 44.7385 19.1679C44.3118 19.0506 43.8851 18.9172 43.4585 18.7679C43.0318 18.6079 42.6371 18.4106 42.2745 18.1759C41.9225 17.9306 41.6345 17.6212 41.4105 17.2479C41.1971 16.8746 41.0905 16.3999 41.0905 15.8239C41.0905 15.1732 41.2665 14.6132 41.6185 14.1439C41.9705 13.6639 42.4558 13.2959 43.0745 13.0399C43.7038 12.7732 44.4398 12.6399 45.2825 12.6399C46.0291 12.6399 46.7545 12.7466 47.4585 12.9599C48.1731 13.1732 48.7971 13.4559 49.3305 13.8079L48.4665 15.5679Z" fill="#F7F7F7"/>
</svg>
